#!OML:ASF G:\JayActor3\Patient Classification 1\Patient 1\Session 5\male.ASF
:FULLY-SPECIFIED
:DEGREES
603
root 42.4526 16.2405 -4.66194 761.665 99.1687 767.211
lowerback 1.71093 0.0216052 6.55282
upperback 3.21504 0.0928953 0.72738
thorax 2.37062 0.219927 -2.91847
lowerneck -10.2577 -1.44528 1.23706
upperneck 13.2016 -2.42706 2.38926
head 5.69283 -0.905673 0.361176
rclavicle 1.0871e-014 -2.10712e-014
rhumerus -26.0238 1.78269 -87.0869
rradius 32.4053
rwrist -0.645707
rhand -19.0492 -6.25858
rfingers 7.12502
rthumb 7.25768 -36.1141
lclavicle 1.0871e-014 -2.10712e-014
lhumerus -37.8005 15.1552 78.1739
lradius 21.1983
lwrist 7.78898
lhand -15.9019 12.3656
lfingers 7.12502
lthumb 10.2948 42.0936
rfemur -6.34089 -2.01446 31.9386
rtibia 32.9073
rfoot -21.3494 -13.0395
rtoes 8.00486
lfemur -19.3392 1.8987 -13.4166
ltibia 44.0155
lfoot -14.4 14.9287
ltoes -13.8746
604
root 42.551 16.2387 -4.66463 762.366 99.2138 767.865
lowerback 1.68122 0.0523998 6.67312
upperback 3.23231 0.131663 0.729395
thorax 2.41039 0.244032 -2.98328
lowerneck -10.2235 -1.44159 1.22374
upperneck 13.0639 -2.42042 2.41091
head 5.64422 -0.904936 0.371182
rclavicle -2.16924e-014 -3.57812e-015
rhumerus -25.7494 2.04375 -87.1809
rradius 32.7123
rwrist -0.814987
rhand -19.0502 -6.24507
rfingers 7.12502
rthumb 7.25667 -36.1006
lclavicle -2.16924e-014 -3.57812e-015
lhumerus -37.8554 15.1668 78.1199
lradius 21.2731
lwrist 7.80167
lhand -15.9571 12.3171
lfingers 7.12502
lthumb 10.2415 42.0478
rfemur -5.87149 -2.08224 32.0678
rtibia 32.6408
rfoot -21.5446 -12.9457
rtoes 7.91811
lfemur -19.7381 2.05729 -13.4592
ltibia 42.5061
lfoot -14.001 14.4023
ltoes -14.2546
605
root 42.6492 16.2371 -4.66748 763.048 99.255 768.492
lowerback 1.63705 0.0823961 6.77864
upperback 3.24901 0.167918 0.730879
thorax 2.45747 0.266738 -3.04028
lowerneck -10.1904 -1.44097 1.20888
upperneck 12.9276 -2.41805 2.43513
head 5.59634 -0.906114 0.38189
rclavicle 7.45443e-015 -1.98785e-015
rhumerus -25.4886 2.30818 -87.2807
rradius 33.0091
rwrist -0.990408
rhand -19.0601 -6.21579
rfingers 7.12502
rthumb 7.24713 -36.0717
lclavicle 7.45443e-015 -1.98785e-015
lhumerus -37.8823 15.1966 78.06
lradius 21.3044
lwrist 7.78478
lhand -16.0037 12.2951
lfingers 7.12502
lthumb 10.1966 42.028
rfemur -5.39649 -2.12712 32.1928
rtibia 32.3485
rfoot -21.7326 -12.8568
rtoes 7.86779
lfemur -20.1075 2.25685 -13.5105
ltibia 41.0004
lfoot -13.5197 13.6985
ltoes -14.7563
606
root 42.7471 16.2355 -4.67036 763.714 99.2986 769.092
lowerback 1.57663 0.110351 6.87208
upperback 3.26387 0.199848 0.733393
thorax 2.51137 0.287132 -3.08936
lowerneck -10.161 -1.44025 1.19669
upperneck 12.7938 -2.41579 2.45735
head 5.5499 -0.907278 0.391486
rclavicle 4.48508e-015 1.63003e-014
rhumerus -25.2419 2.57156 -87.3862
rradius 33.2952
rwrist -1.16491
rhand -19.0767 -6.17681
rfingers 7.12502
rthumb 7.23115 -36.0333
lclavicle 4.48508e-015 1.63003e-014
lhumerus -37.8821 15.2525 77.9892
lradius 21.2912
lwrist 7.73694
lhand -16.0355 12.2766
lfingers 7.12502
lthumb 10.1659 42.011
rfemur -4.92951 -2.15155 32.3197
rtibia 32.0468
rfoot -21.9097 -12.7796
rtoes 7.8302
lfemur -20.4533 2.49175 -13.5656
ltibia 39.5055
lfoot -13.0115 12.8141
ltoes -15.2826
607
root 42.8447 16.2337 -4.6733 764.342 99.3415 769.651
lowerback 1.50652 0.136066 6.95102
upperback 3.27966 0.227712 0.734943
thorax 2.57122 0.305378 -3.13126
lowerneck -10.1401 -1.44144 1.18296
upperneck 12.6694 -2.41685 2.48451
head 5.50797 -0.9095 0.402539
rclavicle -2.36057e-015 -2.0276e-014
rhumerus -25.0094 2.83242 -87.4985
rradius 33.566
rwrist -1.33414
rhand -19.1045 -6.1091
rfingers 7.12502
rthumb 7.20431 -35.9665
lclavicle -2.36057e-015 -2.0276e-014
lhumerus -37.8558 15.3233 77.912
lradius 21.2391
lwrist 7.67007
lhand -16.0522 12.2521
lfingers 7.12502
lthumb 10.1498 41.9873
rfemur -4.46642 -2.1633 32.443
rtibia 31.7453
rfoot -22.0846 -12.711
rtoes 7.81642
lfemur -20.764 2.7511 -13.6297
ltibia 38.0254
lfoot -12.5218 11.7719
ltoes -15.8009
608
root 42.9419 16.2316 -4.67638 764.928 99.379 770.165
lowerback 1.43215 0.160134 7.01163
upperback 3.29431 0.252841 0.735284
thorax 2.63188 0.321804 -3.1641
lowerneck -10.1257 -1.44214 1.16481
upperneck 12.5548 -2.41813 2.52133
head 5.47045 -0.911049 0.417244
rclavicle -2.25621e-014 -4.37326e-015
rhumerus -24.7929 3.09216 -87.6165
rradius 33.8206
rwrist -1.49829
rhand -19.1401 -6.03283
rfingers 7.12502
rthumb 7.16993 -35.8914
lclavicle -2.25621e-014 -4.37326e-015
lhumerus -37.8066 15.4187 77.8262
lradius 21.1531
lwrist 7.57434
lhand -16.0538 12.2552
lfingers 7.12502
lthumb 10.1483 41.9905
rfemur -4.01246 -2.16707 32.5569
rtibia 31.4492
rfoot -22.2494 -12.6548
rtoes 7.78797
lfemur -21.0341 3.01752 -13.7065
ltibia 36.5617
lfoot -12.0864 10.6164
ltoes -16.2941
609
root 43.0387 16.2294 -4.67966 765.507 99.4145 770.676
lowerback 1.35926 0.181795 7.06126
upperback 3.30983 0.274755 0.736422
thorax 2.69219 0.336387 -3.18996
lowerneck -10.1158 -1.4409 1.14983
upperneck 12.4482 -2.41736 2.55766
head 5.43614 -0.911274 0.431382
rclavicle -1.19271e-015 -6.36111e-015
rhumerus -24.59 3.34504 -87.7396
rradius 34.0577
rwrist -1.64675
rhand -19.1691 -5.97151
rfingers 7.12502
rthumb 7.14194 -35.831
lclavicle -1.19271e-015 -6.36111e-015
lhumerus -37.7361 15.5375 77.7318
lradius 21.0356
lwrist 7.45103
lhand -16.0396 12.2557
lfingers 7.12502
lthumb 10.1619 41.9903
rfemur -3.56208 -2.16331 32.6694
rtibia 31.1586
rfoot -22.3989 -12.6197
rtoes 7.71446
lfemur -21.2536 3.25613 -13.7816
ltibia 35.1181
lfoot -11.7213 9.4155
ltoes -16.7317
610
root 43.1348 16.2273 -4.68336 766.073 99.4459 771.181
lowerback 1.29664 0.20076 7.10205
upperback 3.32399 0.293964 0.736884
thorax 2.74493 0.349142 -3.21161
lowerneck -10.1082 -1.43914 1.13466
upperneck 12.3501 -2.41612 2.59518
head 5.40494 -0.91098 0.445913
rclavicle 1.73937e-016 -3.37934e-014
rhumerus -24.4055 3.58699 -87.8667
rradius 34.2767
rwrist -1.77038
rhand -19.1908 -5.92414
rfingers 7.12502
rthumb 7.12098 -35.7843
lclavicle 1.73937e-016 -3.37934e-014
lhumerus -37.6515 15.6651 77.6346
lradius 20.8952
lwrist 7.31134
lhand -16.0152 12.2359
lfingers 7.12502
lthumb 10.1855 41.9693
rfemur -3.11145 -2.15453 32.7759
rtibia 30.8711
rfoot -22.5378 -12.5952
rtoes 7.61187
lfemur -21.4168 3.42937 -13.8494
ltibia 33.7008
lfoot -11.4286 8.25508
ltoes -17.108
611
root 43.2301 16.2255 -4.68763 766.637 99.4713 771.692
lowerback 1.24944 0.217199 7.13661
upperback 3.33566 0.311234 0.735737
thorax 2.78613 0.360361 -3.23154
lowerneck -10.1035 -1.43445 1.12117
upperneck 12.2613 -2.41106 2.6308
head 5.37705 -0.908657 0.459817
rclavicle 6.85807e-015 -1.66979e-014
rhumerus -24.2392 3.8151 -87.9981
rradius 34.4731
rwrist -1.86687
rhand -19.1993 -5.89374
rfingers 7.12502
rthumb 7.11276 -35.7542
lclavicle 6.85807e-015 -1.66979e-014
lhumerus -37.5577 15.7962 77.5363
lradius 20.7421
lwrist 7.15759
lhand -15.9817 12.2358
lfingers 7.12502
lthumb 10.2178 41.9676
rfemur -2.65814 -2.1404 32.8761
rtibia 30.5801
rfoot -22.6495 -12.6027
rtoes 7.41709
lfemur -21.5213 3.51005 -13.9016
ltibia 32.3232
lfoot -11.1924 7.21861
ltoes -17.4296
